<svg width="240" height="99" viewBox="0 0 240 99" fill="none" xmlns="http://www.w3.org/2000/svg">
<g clip-path="url(#clip0_83_282)">
<path d="M90.2707 54.0013C90.3649 53.435 90.459 52.8739 90.459 52.4063C90.459 49.8657 89.0413 47.7044 86.2008 47.7044H83.8362V46.577H110.62C111.661 46.577 112.514 46.6705 112.514 47.6109C112.514 47.7979 112.42 48.0785 112.42 48.2707L103.051 86.4311C102.862 87.1844 102.768 87.9326 102.768 88.6859C102.768 90.9407 103.809 92.728 105.891 92.728C108.256 92.728 111.667 89.9069 112.99 88.4054L114.031 89.1587C111.096 92.7332 102.392 98.6508 92.5463 98.6508C86.6768 98.6508 81.66 95.9232 81.66 90.0056C81.66 89.0652 81.7542 88.0313 82.0367 86.9039L90.2707 54.0013Z" fill="black"/>
<path d="M101.916 43.2831C96.5221 43.2831 92.8289 39.9944 92.8289 35.5783C92.8289 29.4684 99.4569 24.2055 106.362 24.2055C111.661 24.2055 115.261 27.4007 115.261 31.822C115.261 32.3831 115.166 33.0429 115.072 33.7027C113.838 39.054 107.968 43.2831 101.916 43.2831Z" fill="#EC1D23"/>
<path d="M184.062 87.652C181.509 93.0085 176.869 98.9313 166.082 98.9313C159.172 98.9313 153.872 95.5491 153.872 89.9068C153.872 83.3294 162.012 58.2303 162.012 54.6611C162.012 52.6868 161.16 51.1853 159.459 51.1853C156.713 51.1853 150.184 60.5839 146.02 68.855L139.11 97.5233H119.519L127.847 61.4307C128.035 60.4903 128.129 59.55 128.129 58.7031C128.129 56.2613 127.277 54.6611 125.953 54.6611C123.395 54.6611 119.519 62.2776 118.666 63.9661L117.625 63.2127C120.277 57.8563 126.142 45.9172 138.733 45.9172C145.738 45.9172 148.197 50.619 148.197 56.069C148.197 59.5448 146.779 63.8726 146.591 65.0935C154.448 49.4916 161.923 45.4496 170.157 45.4496C178.203 45.4496 181.326 50.9931 181.326 55.7885C181.326 62.1789 173.563 86.5246 173.563 90.6602C173.563 92.3539 174.698 93.4813 176.592 93.4813C179.903 93.4813 181.609 88.8782 183.026 87.278L184.062 87.652Z" fill="black"/>
<path d="M207.158 83.0437C207.158 92.6293 209.905 96.7648 213.88 96.7648C220.697 96.7648 230.348 89.9017 235.083 81.35L236.124 82.0098C229.689 92.728 220.602 98.7391 209.057 98.7391C197.417 98.7391 187.384 91.7824 187.384 78.2483C187.384 58.9785 207.639 45.7249 225.619 45.7249C235.747 45.7249 240.005 51.1749 240.005 57.2848C240.005 68.4705 219.844 74.2063 207.545 76.1753C207.346 78.7211 207.158 81.0694 207.158 83.0437ZM224.285 47.5122C218.227 47.5122 209.329 60.9527 207.629 74.2063C207.911 74.2998 208.293 74.3933 208.576 74.3933C214.822 74.3933 228.261 71.1981 228.261 53.9025C228.261 49.7722 226.655 47.5122 224.285 47.5122Z" fill="black"/>
<path d="M14.2133 15.8045V16.7189C14.2133 17.2904 13.7634 17.732 13.2141 17.732C12.6387 17.732 12.215 17.2852 12.215 16.7189V0.992326C12.215 0.446807 12.6387 0 13.2141 0C13.7634 0 14.2133 0.446807 14.2133 0.992326V6.63975C15.359 5.42402 17.0068 4.6603 18.8744 4.6603C22.5415 4.6603 25.335 7.55934 25.335 11.2221C25.335 14.8901 22.5415 17.7839 18.8744 17.7839C17.0068 17.7839 15.359 17.041 14.2133 15.8045ZM23.3157 11.2221C23.3157 8.54648 21.2964 6.48909 18.7488 6.48909C16.2535 6.48909 14.3075 8.44776 14.2081 11.0247V11.4195C14.3075 13.9965 16.2535 15.95 18.7488 15.95C21.2964 15.95 23.3157 13.8978 23.3157 11.2221Z" fill="#EC1D23"/>
<path d="M27.5845 11.2221C27.5845 7.55416 30.4251 4.66031 34.1706 4.66031C37.911 4.66031 40.7306 7.55936 40.7306 11.2221C40.7306 14.8901 37.911 17.784 34.1706 17.784C30.4251 17.784 27.5845 14.8849 27.5845 11.2221ZM38.7061 11.2221C38.7061 8.59844 36.734 6.4891 34.1654 6.4891C31.5969 6.4891 29.5985 8.59325 29.5985 11.2221C29.5985 13.825 31.5916 15.9552 34.1654 15.9552C36.734 15.95 38.7061 13.8198 38.7061 11.2221Z" fill="#EC1D23"/>
<path d="M42.9696 11.2221C42.9696 7.55416 45.8102 4.66031 49.5558 4.66031C53.2961 4.66031 56.1158 7.55936 56.1158 11.2221C56.1158 14.8901 53.2961 17.784 49.5558 17.784C45.8154 17.784 42.9696 14.8849 42.9696 11.2221ZM54.0965 11.2221C54.0965 8.59844 52.1243 6.4891 49.5558 6.4891C46.9872 6.4891 44.9889 8.59325 44.9889 11.2221C44.9889 13.825 46.982 15.9552 49.5558 15.9552C52.1243 15.95 54.0965 13.8198 54.0965 11.2221Z" fill="#EC1D23"/>
<path d="M58.9354 0.992326C58.9354 0.446807 59.3592 0 59.9346 0C60.4839 0 60.9338 0.446807 60.9338 0.992326V16.7241C60.9338 17.2956 60.4839 17.7424 59.9346 17.7424C59.3592 17.7424 58.9354 17.2956 58.9354 16.7241V0.992326ZM61.9486 11.8404C61.7969 11.643 61.6766 11.3676 61.6766 11.0974C61.6766 10.874 61.776 10.5779 61.9486 10.3805L66.4632 5.05515C66.662 4.83175 66.8608 4.70706 67.1642 4.70706C67.6873 4.70706 68.1111 5.10191 68.1111 5.62145C68.1111 5.81888 68.0378 6.04228 67.8861 6.21373L63.8476 10.9935L68.1634 16.0954C68.3151 16.2669 68.4145 16.5163 68.4145 16.7397C68.4145 17.2852 67.9175 17.732 67.3892 17.732C67.1119 17.732 66.8137 17.6073 66.6411 17.3579L61.9486 11.8404Z" fill="#EC1D23"/>
<path d="M76.9415 16.6202V5.69939C76.9415 5.15387 77.3653 4.70706 77.9407 4.70706C78.49 4.70706 78.9399 5.15387 78.9399 5.69939V14.2459L86.6978 5.05515C86.8966 4.83175 87.0954 4.70706 87.3936 4.70706C87.9167 4.70706 88.3404 5.10191 88.3404 5.62146C88.3404 5.81888 88.2672 6.04229 88.1155 6.21373L74.6973 22.091C74.4985 22.3144 74.2997 22.439 74.0016 22.439C73.4784 22.439 73.0547 22.0442 73.0547 21.5247C73.0547 21.3272 73.1279 21.1038 73.2796 20.9324L76.9415 16.6202Z" fill="#EC1D23"/>
<path d="M88.4659 11.2221C88.4659 7.55416 91.3065 4.66031 95.0521 4.66031C98.7925 4.66031 101.612 7.55936 101.612 11.2221C101.612 14.8901 98.7925 17.784 95.0521 17.784C91.3065 17.784 88.4659 14.8849 88.4659 11.2221ZM99.5876 11.2221C99.5876 8.59844 97.6154 6.4891 95.0469 6.4891C92.4783 6.4891 90.48 8.59325 90.48 11.2221C90.48 13.825 92.4731 15.9552 95.0469 15.9552C97.6154 15.95 99.5876 13.8198 99.5876 11.2221Z" fill="#EC1D23"/>
<path d="M104.427 5.69939C104.427 5.15387 104.85 4.70706 105.426 4.70706C105.975 4.70706 106.425 5.15387 106.425 5.69939V12.1157C106.425 14.6407 107.973 15.9552 109.893 15.9552C111.839 15.9552 113.388 14.6407 113.388 12.1157V5.69939C113.388 5.15387 113.811 4.70706 114.387 4.70706C114.936 4.70706 115.386 5.15387 115.386 5.69939V12.043C115.386 15.633 112.969 17.7891 109.898 17.7891C106.854 17.7891 104.437 15.633 104.437 12.043V5.69939H104.427Z" fill="#EC1D23"/>
<path d="M118.744 10.0064C118.744 6.81119 120.79 4.65509 123.882 4.65509C124.379 4.65509 124.802 5.04994 124.802 5.56949C124.802 6.06305 124.379 6.48908 123.882 6.48908C122.035 6.48908 120.738 7.69961 120.738 10.0064V16.7189C120.738 17.2904 120.288 17.732 119.738 17.732C119.163 17.732 118.739 17.2852 118.739 16.7189V10.0064H118.744Z" fill="#EC1D23"/>
<path d="M53.0764 22.3247H9.44767L9.16518 23.5457H11.9116C14.8463 23.5457 16.9284 24.7666 16.9284 27.7747C16.9284 28.341 16.8342 28.9957 16.6459 29.749L5.1528 79.2458C12.6387 72.7515 18.6233 67.5821 19.6905 66.7352C25.0107 62.5062 23.6401 58.4277 25.1519 48.6811C26.0988 42.5505 31.4504 36.7576 39.1717 32.8091C46.9245 28.8398 55.5456 27.2812 59.4324 31.1414C63.3192 35.0016 61.7499 43.5584 57.7532 51.2581C53.7774 58.9265 47.9393 64.2414 41.7717 65.1818C31.9578 66.6781 27.8513 65.3221 23.593 70.6058C22.2852 72.2216 10.8496 85.2154 0 97.5181H35.2849C52.9823 97.5181 72.4792 86.1453 78.6312 59.7318C79.2955 56.7236 79.6722 53.809 79.6722 50.8944C79.6722 34.9184 69.0684 22.3247 53.0764 22.3247Z" fill="black"/>
</g>
<defs>
<clipPath id="clip0_83_282">
<rect width="240" height="98.9313" fill="white"/>
</clipPath>
</defs>
</svg>
