<svg width="360" height="800" viewBox="0 0 360 800" fill="none" xmlns="http://www.w3.org/2000/svg">
<rect width="360" height="800" fill="white"/>
<g clip-path="url(#clip0_1_2)">
<path d="M147.546 384.951C147.648 384.333 147.751 383.721 147.751 383.21C147.751 380.437 146.204 378.077 143.103 378.077H140.521V376.847H169.761C170.897 376.847 171.828 376.949 171.828 377.975C171.828 378.179 171.725 378.486 171.725 378.696L161.497 420.354C161.291 421.176 161.189 421.993 161.189 422.815C161.189 425.277 162.325 427.228 164.598 427.228C167.179 427.228 170.903 424.148 172.348 422.509L173.484 423.332C170.28 427.234 160.777 433.694 150.03 433.694C143.622 433.694 138.146 430.716 138.146 424.256C138.146 423.229 138.248 422.101 138.557 420.87L147.546 384.951Z" fill="black"/>
<path d="M160.258 373.251C154.37 373.251 150.338 369.661 150.338 364.84C150.338 358.17 157.574 352.424 165.112 352.424C170.897 352.424 174.826 355.912 174.826 360.739C174.826 361.352 174.723 362.072 174.62 362.792C173.273 368.634 166.865 373.251 160.258 373.251Z" fill="#EC1D23"/>
<path d="M249.934 421.687C247.148 427.534 242.082 434 230.306 434C222.762 434 216.977 430.308 216.977 424.148C216.977 416.968 225.863 389.568 225.863 385.672C225.863 383.516 224.933 381.877 223.077 381.877C220.078 381.877 212.951 392.137 208.405 401.167L200.862 432.463H179.475L188.566 393.062C188.772 392.035 188.875 391.009 188.875 390.084C188.875 387.419 187.944 385.672 186.499 385.672C183.706 385.672 179.475 393.986 178.544 395.83L177.407 395.007C180.303 389.16 186.704 376.126 200.45 376.126C208.097 376.126 210.781 381.259 210.781 387.209C210.781 391.003 209.234 395.728 209.028 397.06C217.606 380.028 225.766 375.616 234.755 375.616C243.538 375.616 246.948 381.667 246.948 386.902C246.948 393.879 238.473 420.456 238.473 424.971C238.473 426.82 239.712 428.05 241.779 428.05C245.394 428.05 247.256 423.025 248.804 421.278L249.934 421.687Z" fill="black"/>
<path d="M275.148 416.656C275.148 427.12 278.146 431.635 282.486 431.635C289.927 431.635 300.464 424.143 305.632 414.807L306.768 415.527C299.744 427.228 289.824 433.79 277.221 433.79C264.514 433.79 253.561 426.196 253.561 411.421C253.561 390.385 275.673 375.916 295.301 375.916C306.357 375.916 311.006 381.866 311.006 388.536C311.006 400.747 288.996 407.009 275.57 409.158C275.353 411.937 275.148 414.501 275.148 416.656ZM293.845 377.867C287.232 377.867 277.518 392.54 275.662 407.009C275.97 407.111 276.387 407.213 276.695 407.213C283.514 407.213 298.185 403.725 298.185 384.844C298.185 380.335 296.432 377.867 293.845 377.867Z" fill="black"/>
<path d="M64.5162 343.253V344.251C64.5162 344.875 64.0251 345.357 63.4255 345.357C62.7973 345.357 62.3347 344.87 62.3347 344.251V327.083C62.3347 326.488 62.7973 326 63.4255 326C64.0251 326 64.5162 326.488 64.5162 327.083V333.248C65.7669 331.921 67.5658 331.087 69.6046 331.087C73.6078 331.087 76.6574 334.252 76.6574 338.251C76.6574 342.255 73.6078 345.414 69.6046 345.414C67.5658 345.414 65.7669 344.603 64.5162 343.253ZM74.453 338.251C74.453 335.33 72.2487 333.084 69.4675 333.084C66.7435 333.084 64.619 335.222 64.5105 338.035V338.466C64.619 341.279 66.7435 343.412 69.4675 343.412C72.2487 343.412 74.453 341.172 74.453 338.251Z" fill="#EC1D23"/>
<path d="M79.113 338.251C79.113 334.247 82.214 331.087 86.3029 331.087C90.3862 331.087 93.4643 334.252 93.4643 338.251C93.4643 342.255 90.3862 345.414 86.3029 345.414C82.214 345.414 79.113 342.249 79.113 338.251ZM91.2542 338.251C91.2542 335.387 89.1012 333.084 86.2972 333.084C83.4932 333.084 81.3117 335.381 81.3117 338.251C81.3117 341.092 83.4875 343.418 86.2972 343.418C89.1012 343.412 91.2542 341.087 91.2542 338.251Z" fill="#EC1D23"/>
<path d="M95.9085 338.251C95.9085 334.247 99.0095 331.087 103.098 331.087C107.182 331.087 110.26 334.252 110.26 338.251C110.26 342.255 107.182 345.414 103.098 345.414C99.0152 345.414 95.9085 342.249 95.9085 338.251ZM108.055 338.251C108.055 335.387 105.902 333.084 103.098 333.084C100.294 333.084 98.1129 335.381 98.1129 338.251C98.1129 341.092 100.289 343.418 103.098 343.418C105.902 343.412 108.055 341.087 108.055 338.251Z" fill="#EC1D23"/>
<path d="M113.338 327.083C113.338 326.488 113.8 326 114.429 326C115.028 326 115.519 326.488 115.519 327.083V344.257C115.519 344.881 115.028 345.369 114.429 345.369C113.8 345.369 113.338 344.881 113.338 344.257V327.083ZM116.627 338.926C116.462 338.71 116.33 338.41 116.33 338.115C116.33 337.871 116.439 337.548 116.627 337.332L121.556 331.519C121.773 331.275 121.99 331.139 122.321 331.139C122.892 331.139 123.355 331.57 123.355 332.137C123.355 332.352 123.275 332.596 123.109 332.783L118.7 338.001L123.412 343.571C123.577 343.758 123.686 344.03 123.686 344.274C123.686 344.87 123.143 345.357 122.567 345.357C122.264 345.357 121.938 345.221 121.75 344.949L116.627 338.926Z" fill="#EC1D23"/>
<path d="M132.994 344.144V332.222C132.994 331.626 133.457 331.139 134.085 331.139C134.685 331.139 135.176 331.626 135.176 332.222V341.552L143.645 331.519C143.862 331.275 144.079 331.139 144.405 331.139C144.976 331.139 145.438 331.57 145.438 332.137C145.438 332.352 145.358 332.596 145.193 332.783L130.544 350.116C130.327 350.36 130.11 350.496 129.785 350.496C129.214 350.496 128.751 350.065 128.751 349.498C128.751 349.282 128.831 349.038 128.997 348.851L132.994 344.144Z" fill="#EC1D23"/>
<path d="M145.575 338.251C145.575 334.247 148.676 331.087 152.765 331.087C156.848 331.087 159.927 334.252 159.927 338.251C159.927 342.255 156.848 345.414 152.765 345.414C148.676 345.414 145.575 342.249 145.575 338.251ZM157.716 338.251C157.716 335.387 155.564 333.084 152.76 333.084C149.956 333.084 147.774 335.381 147.774 338.251C147.774 341.092 149.95 343.418 152.76 343.418C155.564 343.412 157.716 341.087 157.716 338.251Z" fill="#EC1D23"/>
<path d="M162.999 332.222C162.999 331.626 163.462 331.139 164.09 331.139C164.689 331.139 165.18 331.626 165.18 332.222V339.226C165.18 341.983 166.871 343.418 168.967 343.418C171.091 343.418 172.782 341.983 172.782 339.226V332.222C172.782 331.626 173.244 331.139 173.872 331.139C174.472 331.139 174.963 331.626 174.963 332.222V339.147C174.963 343.066 172.325 345.42 168.972 345.42C165.649 345.42 163.01 343.066 163.01 339.147V332.222H162.999Z" fill="#EC1D23"/>
<path d="M178.629 336.924C178.629 333.436 180.862 331.082 184.237 331.082C184.78 331.082 185.243 331.513 185.243 332.08C185.243 332.619 184.78 333.084 184.237 333.084C182.222 333.084 180.805 334.405 180.805 336.924V344.251C180.805 344.875 180.314 345.357 179.714 345.357C179.086 345.357 178.624 344.87 178.624 344.251V336.924H178.629Z" fill="#EC1D23"/>
<path d="M106.942 350.371H59.3137L59.0053 351.704H62.0035C65.2072 351.704 67.4801 353.037 67.4801 356.321C67.4801 356.939 67.3773 357.654 67.1718 358.476L54.6251 412.51C62.7973 405.42 69.3304 399.777 70.4954 398.853C76.3033 394.236 74.8071 389.784 76.4575 379.144C77.4912 372.451 83.3333 366.127 91.7625 361.817C100.226 357.483 109.637 355.782 113.88 359.996C118.124 364.21 116.41 373.551 112.047 381.957C107.707 390.328 101.334 396.13 94.6007 397.157C83.8873 398.79 79.4043 397.31 74.7557 403.078C73.328 404.842 60.8442 419.027 49 432.457H87.5193C106.839 432.457 128.123 420.042 134.839 391.207C135.564 387.923 135.975 384.742 135.975 381.56C135.975 364.119 124.4 350.371 106.942 350.371Z" fill="black"/>
</g>
<path d="M58.1373 458.78C58.9239 458.927 59.5906 459.327 60.1373 459.98C60.6839 460.633 60.9573 461.393 60.9573 462.26C60.9573 462.967 60.7773 463.607 60.4173 464.18C60.0706 464.74 59.5573 465.187 58.8773 465.52C58.1973 465.84 57.3839 466 56.4373 466H51.5973V452.02H56.2973C57.7106 452.02 58.7839 452.347 59.5173 453C60.2639 453.653 60.6373 454.5 60.6373 455.54C60.6373 456.407 60.4039 457.113 59.9373 457.66C59.4706 458.193 58.8706 458.567 58.1373 458.78ZM52.9973 458.2H56.2573C57.2039 458.2 57.9306 457.98 58.4373 457.54C58.9573 457.087 59.2173 456.467 59.2173 455.68C59.2173 454.907 58.9573 454.3 58.4373 453.86C57.9306 453.42 57.1839 453.2 56.1973 453.2H52.9973V458.2ZM56.3373 464.82C57.3506 464.82 58.1373 464.58 58.6973 464.1C59.2706 463.62 59.5573 462.96 59.5573 462.12C59.5573 461.28 59.2573 460.613 58.6573 460.12C58.0706 459.613 57.2773 459.36 56.2773 459.36H52.9973V464.82H56.3373ZM77.1109 466.16C76.0842 466.16 75.1575 465.933 74.3309 465.48C73.5175 465.013 72.8709 464.36 72.3909 463.52C71.9242 462.667 71.6909 461.673 71.6909 460.54C71.6909 459.407 71.9309 458.42 72.4109 457.58C72.8909 456.727 73.5442 456.073 74.3709 455.62C75.1975 455.153 76.1242 454.92 77.1509 454.92C78.1775 454.92 79.1042 455.153 79.9309 455.62C80.7709 456.073 81.4242 456.727 81.8909 457.58C82.3709 458.42 82.6109 459.407 82.6109 460.54C82.6109 461.66 82.3709 462.647 81.8909 463.5C81.4109 464.353 80.7509 465.013 79.9109 465.48C79.0709 465.933 78.1375 466.16 77.1109 466.16ZM77.1109 464.94C77.8309 464.94 78.4975 464.78 79.1109 464.46C79.7242 464.127 80.2175 463.633 80.5909 462.98C80.9775 462.313 81.1709 461.5 81.1709 460.54C81.1709 459.58 80.9842 458.773 80.6109 458.12C80.2375 457.453 79.7442 456.96 79.1309 456.64C78.5175 456.307 77.8509 456.14 77.1309 456.14C76.4109 456.14 75.7442 456.307 75.1309 456.64C74.5175 456.96 74.0242 457.453 73.6509 458.12C73.2909 458.773 73.1109 459.58 73.1109 460.54C73.1109 461.5 73.2909 462.313 73.6509 462.98C74.0242 463.633 74.5109 464.127 75.1109 464.46C75.7242 464.78 76.3909 464.94 77.1109 464.94ZM98.7429 466.16C97.7162 466.16 96.7896 465.933 95.9629 465.48C95.1496 465.013 94.5029 464.36 94.0229 463.52C93.5562 462.667 93.3229 461.673 93.3229 460.54C93.3229 459.407 93.5629 458.42 94.0429 457.58C94.5229 456.727 95.1762 456.073 96.0029 455.62C96.8296 455.153 97.7562 454.92 98.7829 454.92C99.8096 454.92 100.736 455.153 101.563 455.62C102.403 456.073 103.056 456.727 103.523 457.58C104.003 458.42 104.243 459.407 104.243 460.54C104.243 461.66 104.003 462.647 103.523 463.5C103.043 464.353 102.383 465.013 101.543 465.48C100.703 465.933 99.7696 466.16 98.7429 466.16ZM98.7429 464.94C99.4629 464.94 100.13 464.78 100.743 464.46C101.356 464.127 101.85 463.633 102.223 462.98C102.61 462.313 102.803 461.5 102.803 460.54C102.803 459.58 102.616 458.773 102.243 458.12C101.87 457.453 101.376 456.96 100.763 456.64C100.15 456.307 99.4829 456.14 98.7629 456.14C98.0429 456.14 97.3762 456.307 96.7629 456.64C96.1496 456.96 95.6562 457.453 95.2829 458.12C94.9229 458.773 94.7429 459.58 94.7429 460.54C94.7429 461.5 94.9229 462.313 95.2829 462.98C95.6562 463.633 96.1429 464.127 96.7429 464.46C97.3562 464.78 98.0229 464.94 98.7429 464.94ZM121.495 466L116.995 461.1V466H115.595V451.2H116.995V459.96L121.395 455.08H123.355L118.175 460.52L123.395 466H121.495ZM157.293 455.08L150.813 471.14H149.353L151.473 465.94L146.993 455.08H148.533L152.253 464.4L155.853 455.08H157.293ZM172.771 466.16C171.744 466.16 170.818 465.933 169.991 465.48C169.178 465.013 168.531 464.36 168.051 463.52C167.584 462.667 167.351 461.673 167.351 460.54C167.351 459.407 167.591 458.42 168.071 457.58C168.551 456.727 169.204 456.073 170.031 455.62C170.858 455.153 171.784 454.92 172.811 454.92C173.838 454.92 174.764 455.153 175.591 455.62C176.431 456.073 177.084 456.727 177.551 457.58C178.031 458.42 178.271 459.407 178.271 460.54C178.271 461.66 178.031 462.647 177.551 463.5C177.071 464.353 176.411 465.013 175.571 465.48C174.731 465.933 173.798 466.16 172.771 466.16ZM172.771 464.94C173.491 464.94 174.158 464.78 174.771 464.46C175.384 464.127 175.878 463.633 176.251 462.98C176.638 462.313 176.831 461.5 176.831 460.54C176.831 459.58 176.644 458.773 176.271 458.12C175.898 457.453 175.404 456.96 174.791 456.64C174.178 456.307 173.511 456.14 172.791 456.14C172.071 456.14 171.404 456.307 170.791 456.64C170.178 456.96 169.684 457.453 169.311 458.12C168.951 458.773 168.771 459.58 168.771 460.54C168.771 461.5 168.951 462.313 169.311 462.98C169.684 463.633 170.171 464.127 170.771 464.46C171.384 464.78 172.051 464.94 172.771 464.94ZM199.083 455.08V466H197.683V464.08C197.363 464.76 196.87 465.28 196.203 465.64C195.536 466 194.79 466.18 193.963 466.18C192.656 466.18 191.59 465.78 190.763 464.98C189.936 464.167 189.523 462.993 189.523 461.46V455.08H190.903V461.3C190.903 462.487 191.196 463.393 191.783 464.02C192.383 464.647 193.196 464.96 194.223 464.96C195.276 464.96 196.116 464.627 196.743 463.96C197.37 463.293 197.683 462.313 197.683 461.02V455.08H199.083ZM212.479 457.02C212.786 456.34 213.253 455.813 213.879 455.44C214.519 455.067 215.299 454.88 216.219 454.88V456.34H215.839C214.826 456.34 214.013 456.613 213.399 457.16C212.786 457.707 212.479 458.62 212.479 459.9V466H211.079V455.08H212.479V457.02ZM245.554 452.02C247.1 452.02 248.427 452.3 249.534 452.86C250.64 453.42 251.487 454.227 252.074 455.28C252.66 456.333 252.954 457.587 252.954 459.04C252.954 460.48 252.66 461.727 252.074 462.78C251.487 463.82 250.64 464.62 249.534 465.18C248.427 465.727 247.1 466 245.554 466H241.414V452.02H245.554ZM245.554 464.84C247.5 464.84 248.98 464.333 249.994 463.32C251.02 462.293 251.534 460.867 251.534 459.04C251.534 457.2 251.02 455.767 249.994 454.74C248.98 453.7 247.5 453.18 245.554 453.18H242.814V464.84H245.554ZM265.035 453.02C264.755 453.02 264.515 452.92 264.315 452.72C264.115 452.52 264.015 452.273 264.015 451.98C264.015 451.687 264.115 451.447 264.315 451.26C264.515 451.06 264.755 450.96 265.035 450.96C265.315 450.96 265.555 451.06 265.755 451.26C265.955 451.447 266.055 451.687 266.055 451.98C266.055 452.273 265.955 452.52 265.755 452.72C265.555 452.92 265.315 453.02 265.035 453.02ZM265.735 455.08V466H264.335V455.08H265.735ZM282.825 454.88C284.132 454.88 285.198 455.287 286.025 456.1C286.852 456.9 287.265 458.067 287.265 459.6V466H285.885V459.76C285.885 458.573 285.585 457.667 284.985 457.04C284.398 456.413 283.592 456.1 282.565 456.1C281.512 456.1 280.672 456.433 280.045 457.1C279.418 457.767 279.105 458.747 279.105 460.04V466H277.705V455.08H279.105V456.94C279.452 456.273 279.952 455.767 280.605 455.42C281.258 455.06 281.998 454.88 282.825 454.88ZM309.041 459.98C309.041 460.46 309.028 460.827 309.001 461.08H299.941C299.981 461.907 300.181 462.613 300.541 463.2C300.901 463.787 301.375 464.233 301.961 464.54C302.548 464.833 303.188 464.98 303.881 464.98C304.788 464.98 305.548 464.76 306.161 464.32C306.788 463.88 307.201 463.287 307.401 462.54H308.881C308.615 463.607 308.041 464.48 307.161 465.16C306.295 465.827 305.201 466.16 303.881 466.16C302.855 466.16 301.935 465.933 301.121 465.48C300.308 465.013 299.668 464.36 299.201 463.52C298.748 462.667 298.521 461.673 298.521 460.54C298.521 459.407 298.748 458.413 299.201 457.56C299.655 456.707 300.288 456.053 301.101 455.6C301.915 455.147 302.841 454.92 303.881 454.92C304.921 454.92 305.828 455.147 306.601 455.6C307.388 456.053 307.988 456.667 308.401 457.44C308.828 458.2 309.041 459.047 309.041 459.98ZM307.621 459.94C307.635 459.127 307.468 458.433 307.121 457.86C306.788 457.287 306.328 456.853 305.741 456.56C305.155 456.267 304.515 456.12 303.821 456.12C302.781 456.12 301.895 456.453 301.161 457.12C300.428 457.787 300.021 458.727 299.941 459.94H307.621Z" fill="black" fill-opacity="0.5"/>
<mask id="mask0_1_2" style="mask-type:alpha" maskUnits="userSpaceOnUse" x="0" y="0" width="360" height="800">
<rect width="360" height="800" fill="white"/>
</mask>
<g mask="url(#mask0_1_2)">
<path d="M340.159 797.323C346.079 808.368 350.117 819.82 352.169 831.366L355.864 852.158L67.8256 999.966L-191.783 550.129L-172.288 536.165C-149.6 519.911 -123.885 501.489 -92.9291 493.097C-55.1305 482.85 -15.3467 490.32 16.223 513.586C44.5519 534.468 62.8524 564.756 78.9992 591.475C84.4821 600.553 89.662 609.124 95.0437 617.112C121.456 656.287 157.858 687.191 197.536 704.126C206.653 708.019 216.133 711.276 226.167 714.729C243.06 720.538 260.53 726.545 278.232 736.28C304.94 750.963 326.933 772.643 340.159 797.323Z" stroke="black" stroke-opacity="0.4" stroke-width="3" stroke-miterlimit="10"/>
<path d="M-145.215 552.995C-122.637 536.817 -99.6485 520.445 -72.5665 513.106C-45.4844 505.768 -13.2431 508.594 13.4761 528.288C43.9695 550.766 61.1962 589.586 83.2784 622.338C113.585 667.286 155.903 703.216 201.427 722.647C227.283 733.683 254.113 739.578 279.293 753.424C304.473 767.27 329.007 792.075 334.229 821.486L83.8765 949.955L-145.215 552.995Z" fill="url(#paint0_linear_1_2)"/>
<path d="M135.689 5.3308C132.866 -3.08797 131.401 -11.5693 131.336 -19.883L131.223 -34.8482L350.012 -103.934L478.012 241.167L462.737 248.613C444.956 257.275 424.801 267.096 402.177 269.283C374.553 271.956 347.642 262.017 328.349 242.017C311.031 224.067 301.842 200.732 293.73 180.144C290.974 173.154 288.372 166.548 285.562 160.33C271.755 129.826 249.994 103.916 224.28 87.3695C218.373 83.5662 212.133 80.1656 205.532 76.5615C194.417 70.4997 182.928 64.2264 171.715 55.3267C154.792 41.8953 142 24.1408 135.689 5.3308Z" stroke="black" stroke-opacity="0.4" stroke-width="3" stroke-miterlimit="10"/>
<path d="M445.813 233.638C428.12 242.26 410.113 250.973 390.321 252.888C370.528 254.802 348.34 249.002 332.007 232.068C313.37 212.746 305.939 183.574 294.398 158.07C278.56 123.071 253.257 92.9466 223.753 73.965C206.999 63.1832 188.95 55.8793 173 43.2225C157.047 30.5599 142.854 10.3149 142.693 -10.8485L332.858 -70.8946L445.813 233.638Z" fill="url(#paint1_linear_1_2)"/>
<path d="M19.4269 141.646C21.8691 141.646 23.8537 143.624 23.8537 146.073C23.8537 148.515 21.8755 150.5 19.4269 150.5C16.9847 150.5 15 148.521 15 146.073C15 143.624 16.9847 141.646 19.4269 141.646Z" fill="black" fill-opacity="0.15"/>
<path d="M19.4269 116.315C21.8691 116.315 23.8537 118.294 23.8537 120.742C23.8537 123.191 21.8755 125.169 19.4269 125.169C16.9847 125.169 15 123.191 15 120.742C15 118.294 16.9847 116.315 19.4269 116.315Z" fill="black" fill-opacity="0.15"/>
<path d="M19.4269 90.9849C21.8691 90.9849 23.8537 92.9632 23.8537 95.4118C23.8537 97.854 21.8755 99.8387 19.4269 99.8387C16.9847 99.8387 15 97.8604 15 95.4118C15 92.9696 16.9847 90.9849 19.4269 90.9849Z" fill="black" fill-opacity="0.15"/>
<path d="M19.4269 65.6544C21.8691 65.6544 23.8537 67.6327 23.8537 70.0813C23.8537 72.5235 21.8755 74.5082 19.4269 74.5082C16.9847 74.5082 15 72.53 15 70.0813C15 67.6391 16.9847 65.6544 19.4269 65.6544Z" fill="black" fill-opacity="0.15"/>
<path d="M19.4269 40.3304C21.8691 40.3304 23.8537 42.3087 23.8537 44.7573C23.8537 47.2059 21.8755 49.1842 19.4269 49.1842C16.9847 49.1842 15 47.2059 15 44.7573C15 42.3087 16.9847 40.3304 19.4269 40.3304Z" fill="black" fill-opacity="0.15"/>
<path d="M19.4269 15C21.8691 15 23.8537 16.9782 23.8537 19.4269C23.8537 21.8755 21.8755 23.8537 19.4269 23.8537C16.9847 23.8537 15 21.8755 15 19.4269C15 16.9782 16.9847 15 19.4269 15Z" fill="black" fill-opacity="0.15"/>
<path d="M41.5032 141.646C43.9454 141.646 45.9301 143.624 45.9301 146.073C45.9301 148.515 43.9518 150.5 41.5032 150.5C39.061 150.5 37.0763 148.521 37.0763 146.073C37.0763 143.624 39.0546 141.646 41.5032 141.646Z" fill="black" fill-opacity="0.15"/>
<path d="M41.5032 116.315C43.9454 116.315 45.9301 118.294 45.9301 120.742C45.9301 123.191 43.9518 125.169 41.5032 125.169C39.061 125.169 37.0763 123.191 37.0763 120.742C37.0763 118.294 39.0546 116.315 41.5032 116.315Z" fill="black" fill-opacity="0.15"/>
<path d="M41.5032 90.9849C43.9454 90.9849 45.9301 92.9632 45.9301 95.4118C45.9301 97.854 43.9518 99.8387 41.5032 99.8387C39.061 99.8387 37.0763 97.8604 37.0763 95.4118C37.0763 92.9696 39.0546 90.9849 41.5032 90.9849Z" fill="black" fill-opacity="0.15"/>
<path d="M41.5032 65.6544C43.9454 65.6544 45.9301 67.6327 45.9301 70.0813C45.9301 72.5235 43.9518 74.5082 41.5032 74.5082C39.061 74.5082 37.0763 72.53 37.0763 70.0813C37.0763 67.6391 39.0546 65.6544 41.5032 65.6544Z" fill="black" fill-opacity="0.15"/>
<path d="M41.5032 40.3304C43.9454 40.3304 45.9301 42.3087 45.9301 44.7573C45.9301 47.2059 43.9518 49.1842 41.5032 49.1842C39.061 49.1842 37.0763 47.2059 37.0763 44.7573C37.0763 42.3087 39.0546 40.3304 41.5032 40.3304Z" fill="black" fill-opacity="0.15"/>
<path d="M41.5032 15C43.9454 15 45.9301 16.9782 45.9301 19.4269C45.9301 21.8755 43.9518 23.8537 41.5032 23.8537C39.061 23.8537 37.0763 21.8755 37.0763 19.4269C37.0763 16.9782 39.0546 15 41.5032 15Z" fill="black" fill-opacity="0.15"/>
<path d="M63.5731 141.646C66.0153 141.646 68 143.624 68 146.073C68 148.515 66.0218 150.5 63.5731 150.5C61.1309 150.5 59.1463 148.521 59.1463 146.073C59.1527 143.624 61.1309 141.646 63.5731 141.646Z" fill="black" fill-opacity="0.15"/>
<path d="M63.5731 116.315C66.0153 116.315 68 118.294 68 120.742C68 123.191 66.0218 125.169 63.5731 125.169C61.1309 125.169 59.1463 123.191 59.1463 120.742C59.1463 118.294 61.1309 116.315 63.5731 116.315Z" fill="black" fill-opacity="0.15"/>
<path d="M63.5731 90.9849C66.0153 90.9849 68 92.9632 68 95.4118C68 97.854 66.0218 99.8387 63.5731 99.8387C61.1309 99.8387 59.1463 97.8604 59.1463 95.4118C59.1527 92.9696 61.1309 90.9849 63.5731 90.9849Z" fill="black" fill-opacity="0.15"/>
<path d="M63.5731 65.6544C66.0153 65.6544 68 67.6327 68 70.0813C68 72.5235 66.0218 74.5082 63.5731 74.5082C61.1309 74.5082 59.1463 72.53 59.1463 70.0813C59.1527 67.6391 61.1309 65.6544 63.5731 65.6544Z" fill="black" fill-opacity="0.15"/>
<path d="M63.5731 40.3304C66.0153 40.3304 68 42.3087 68 44.7573C68 47.2059 66.0218 49.1842 63.5731 49.1842C61.1309 49.1842 59.1463 47.2059 59.1463 44.7573C59.1463 42.3087 61.1309 40.3304 63.5731 40.3304Z" fill="black" fill-opacity="0.15"/>
<path d="M63.5731 15C66.0218 15 68 16.9782 68 19.4269C68 21.8755 66.0218 23.8537 63.5731 23.8537C61.1309 23.8537 59.1463 21.8755 59.1463 19.4269C59.1463 16.9782 61.1309 15 63.5731 15Z" fill="black" fill-opacity="0.15"/>
<path d="M363.726 504C327.978 504 299 514.811 299 528.148C299 541.485 327.978 552.296 363.726 552.296C383.759 552.296 400 547.72 400 542.074C400 536.428 383.759 531.852 363.726 531.852C327.978 531.852 299 542.663 299 556C299 569.337 327.978 580.149 363.726 580.149C383.759 580.149 400 575.572 400 569.926C400 564.28 383.759 559.704 363.726 559.704C327.978 559.704 299 570.582 299 584C299 597.418 327.978 608.297 363.726 608.297C383.759 608.297 400 603.72 400 598.074C400 592.428 383.759 587.852 363.726 587.852C327.978 587.852 299 598.663 299 612C299 625.337 327.978 636.148 363.726 636.148C383.759 636.148 400 631.572 400 625.926C400 620.28 383.759 615.703 363.726 615.703C327.978 615.703 299 626.515 299 639.852C299 653.189 327.978 664 363.726 664C383.759 664 400 659.423 400 653.778C400 648.132 383.759 643.556 363.726 643.556C327.978 643.556 299 654.367 299 667.703C299 681.04 327.978 691.852 363.726 691.852C383.759 691.852 400 687.275 400 681.629C400 675.984 383.759 671.408 363.726 671.408C327.978 671.408 299 682.285 299 695.703C299 709.122 327.978 720 363.726 720" stroke="black" stroke-opacity="0.15" stroke-width="4" stroke-linecap="round"/>
</g>
<defs>
<linearGradient id="paint0_linear_1_2" x1="204.225" y1="888.198" x2="-7.15114" y2="476.267" gradientUnits="userSpaceOnUse">
<stop stop-color="#EC1D23"/>
<stop offset="1" stop-color="#BC2D2C"/>
</linearGradient>
<linearGradient id="paint1_linear_1_2" x1="241.447" y1="-42.0326" x2="340.244" y2="270.86" gradientUnits="userSpaceOnUse">
<stop stop-color="#EC1D23"/>
<stop offset="1" stop-color="#BC2D2C"/>
</linearGradient>
<clipPath id="clip0_1_2">
<rect width="262" height="108" fill="white" transform="translate(49 326)"/>
</clipPath>
</defs>
</svg>
