<svg width="40" height="40" viewBox="0 0 40 40" fill="none" xmlns="http://www.w3.org/2000/svg">
<path d="M11.6156 12.1344C11.4994 12.0183 11.4072 11.8804 11.3443 11.7287C11.2814 11.5769 11.249 11.4143 11.249 11.25C11.249 11.0857 11.2814 10.9231 11.3443 10.7713C11.4072 10.6196 11.4994 10.4817 11.6156 10.3656L19.1156 2.86563C19.2317 2.74941 19.3696 2.65721 19.5213 2.59431C19.6731 2.5314 19.8357 2.49902 20 2.49902C20.1643 2.49902 20.3269 2.5314 20.4787 2.59431C20.6304 2.65721 20.7683 2.74941 20.8844 2.86563L28.3844 10.3656C28.6189 10.6002 28.7507 10.9183 28.7507 11.25C28.7507 11.5817 28.6189 11.8998 28.3844 12.1344C28.1498 12.3689 27.8317 12.5007 27.5 12.5007C27.1683 12.5007 26.8502 12.3689 26.6156 12.1344L21.25 6.76719V20C21.25 20.3315 21.1183 20.6495 20.8839 20.8839C20.6495 21.1183 20.3315 21.25 20 21.25C19.6685 21.25 19.3505 21.1183 19.1161 20.8839C18.8817 20.6495 18.75 20.3315 18.75 20V6.76719L13.3844 12.1344C13.2683 12.2506 13.1304 12.3428 12.9787 12.4057C12.8269 12.4686 12.6643 12.501 12.5 12.501C12.3357 12.501 12.1731 12.4686 12.0213 12.4057C11.8696 12.3428 11.7317 12.2506 11.6156 12.1344ZM37.5 21.25V31.25C37.5 31.913 37.2366 32.5489 36.7678 33.0178C36.2989 33.4866 35.663 33.75 35 33.75H5C4.33696 33.75 3.70107 33.4866 3.23223 33.0178C2.76339 32.5489 2.5 31.913 2.5 31.25V21.25C2.5 20.587 2.76339 19.9511 3.23223 19.4822C3.70107 19.0134 4.33696 18.75 5 18.75H15.625C15.7908 18.75 15.9497 18.8159 16.0669 18.9331C16.1842 19.0503 16.25 19.2092 16.25 19.375V19.9156C16.25 22.0172 17.9688 23.7891 20.0719 23.75C21.0539 23.7312 21.9894 23.3278 22.6772 22.6266C23.365 21.9253 23.7502 20.9822 23.75 20V19.375C23.75 19.2092 23.8158 19.0503 23.9331 18.9331C24.0503 18.8159 24.2092 18.75 24.375 18.75H35C35.663 18.75 36.2989 19.0134 36.7678 19.4822C37.2366 19.9511 37.5 20.587 37.5 21.25ZM31.25 26.25C31.25 25.8792 31.14 25.5167 30.934 25.2083C30.728 24.9 30.4351 24.6596 30.0925 24.5177C29.7499 24.3758 29.3729 24.3387 29.0092 24.411C28.6455 24.4834 28.3114 24.662 28.0492 24.9242C27.787 25.1864 27.6084 25.5205 27.536 25.8842C27.4637 26.2479 27.5008 26.6249 27.6427 26.9675C27.7846 27.3101 28.025 27.603 28.3333 27.809C28.6416 28.015 29.0042 28.125 29.375 28.125C29.8723 28.125 30.3492 27.9275 30.7008 27.5758C31.0525 27.2242 31.25 26.7473 31.25 26.25Z" fill="black"/>
</svg>
